<svg width="60" height="60" viewBox="0 0 60 60" fill="none" xmlns="http://www.w3.org/2000/svg">
<path d="M9.8493 42.7149C7.25336 42.7163 5.14398 40.6041 5.14352 38.0086L5.14258 23.5997C5.14164 21.0066 7.25055 18.8948 9.8432 18.8944C11.1037 18.8934 12.284 19.3823 13.1737 20.2711C14.0634 21.1598 14.5527 22.342 14.5537 23.5988L14.5523 38.0081C14.5555 38.6259 14.4357 39.2381 14.1998 39.809C13.9639 40.3799 13.6167 40.8982 13.1784 41.3334C12.7427 41.7728 12.224 42.1211 11.6525 42.3583C11.081 42.5954 10.468 42.7166 9.8493 42.7149ZM9.84555 20.1586C7.9457 20.1577 6.40586 21.7013 6.40539 23.5997L6.40773 38.0072C6.40761 38.9202 6.77001 39.7958 7.41527 40.4417C8.06053 41.0876 8.93585 41.4508 9.84883 41.4516C10.3009 41.4516 10.7486 41.3626 11.1663 41.1895C11.5839 41.0164 11.9633 40.7626 12.2829 40.4428C12.6024 40.1229 12.8557 39.7432 13.0283 39.3254C13.201 38.9075 13.2895 38.4598 13.289 38.0077V23.5978C13.288 22.6853 12.9247 21.8104 12.2791 21.1655C11.6334 20.5206 10.7581 20.1585 9.84555 20.1586Z" fill="white"/>
<path d="M46.754 20.872L45.4894 20.8715L14.4961 20.8758L13.2309 20.8762L13.23 19.6111C13.2272 14.4173 16.0565 9.58686 20.6911 6.73311L18.8892 3.44389C18.6689 3.05858 18.6136 2.57061 18.742 2.12436C18.8071 1.90179 18.9158 1.69439 19.0618 1.51422C19.2078 1.33404 19.3881 1.18468 19.5923 1.07483C19.8448 0.935812 20.1286 0.863683 20.4169 0.865298C21.0553 0.865298 21.6398 1.2117 21.9483 1.77139L23.834 5.20686C25.8009 4.48703 27.8797 4.12122 29.9742 4.12639C32.1333 4.12545 34.2037 4.49061 36.1636 5.20967L38.0465 1.76858C38.1965 1.49404 38.4177 1.26503 38.6869 1.10565C38.9561 0.946273 39.2633 0.862431 39.5761 0.862954C39.864 0.862045 40.1476 0.932591 40.4015 1.06827C40.6061 1.17808 40.7866 1.32778 40.9323 1.50853C41.078 1.68928 41.1861 1.89741 41.25 2.12061C41.3144 2.34072 41.3344 2.57143 41.3088 2.79933C41.2832 3.02723 41.2125 3.24777 41.1009 3.44811L39.3 6.73545C43.927 9.5953 46.7531 14.422 46.7526 19.6069L46.754 20.872ZM37.5919 7.22014L39.9933 2.83499C40.0276 2.7799 40.0503 2.7184 40.06 2.65425C40.0697 2.59009 40.0663 2.52463 40.0499 2.46185C40.0335 2.39907 40.0045 2.34028 39.9646 2.28909C39.9247 2.23789 39.8749 2.19536 39.818 2.16408C39.7611 2.1328 39.6985 2.11343 39.6339 2.10716C39.5694 2.10088 39.5042 2.10783 39.4424 2.12758C39.3805 2.14733 39.3234 2.17947 39.2744 2.22203C39.2255 2.2646 39.1857 2.31669 39.1575 2.37514L36.7312 6.80483C34.6903 5.89827 32.4051 5.38874 29.9897 5.39108C27.5794 5.38874 25.2984 5.89639 23.2636 6.79967L20.835 2.37983C20.8053 2.32459 20.765 2.2758 20.7164 2.23628C20.6677 2.19677 20.6116 2.16732 20.5515 2.14966C20.4914 2.13199 20.4283 2.12646 20.366 2.13338C20.3037 2.14031 20.2434 2.15955 20.1886 2.18999C19.9556 2.31467 19.8698 2.60764 19.9997 2.83639L22.402 7.21827C17.6817 9.65295 14.4923 14.2889 14.4951 19.6115L45.4879 19.6078C45.4894 14.287 42.3056 9.66045 37.5919 7.22014ZM22.9406 13.9969C22.5959 13.9967 22.2654 13.8596 22.0218 13.6157C21.7783 13.3719 21.6415 13.0412 21.6417 12.6965C21.6419 12.3519 21.779 12.0214 22.0228 11.7778C22.2667 11.5342 22.5973 11.3975 22.942 11.3976C23.2867 11.3983 23.6172 11.5354 23.861 11.7791C24.1047 12.0229 24.242 12.3532 24.2428 12.698C24.2423 13.0429 24.1048 13.3735 23.8606 13.617C23.6165 13.8606 23.2855 13.9972 22.9406 13.9969ZM37.0533 13.994C36.8826 13.9944 36.7135 13.961 36.5558 13.8958C36.398 13.8307 36.2547 13.735 36.1339 13.6143C36.0132 13.4937 35.9175 13.3503 35.8523 13.1926C35.7871 13.0349 35.7536 12.8658 35.7539 12.6951C35.7551 12.3506 35.8924 12.0204 36.1358 11.7765C36.3793 11.5327 36.7092 11.3948 37.0537 11.393C37.3978 11.3958 37.7269 11.5341 37.9697 11.778C38.2125 12.0218 38.3494 12.3515 38.3508 12.6956C38.3508 12.8661 38.3173 13.0349 38.2521 13.1924C38.187 13.3499 38.0914 13.493 37.9709 13.6135C37.8504 13.7341 37.7074 13.8298 37.5499 13.8951C37.3925 13.9604 37.2237 13.994 37.0533 13.994ZM24.2395 59.137C21.6459 59.1365 19.5351 57.0272 19.5347 54.4317L19.5337 48.0722L18.2972 48.0736C17.6486 48.0758 17.006 47.9493 16.4067 47.7013C15.8074 47.4533 15.2633 47.0888 14.8059 46.6289C14.3454 46.1716 13.9804 45.6273 13.7323 45.0275C13.4842 44.4278 13.3579 43.7848 13.3608 43.1358L13.3561 20.8106V19.5445H14.6212L45.382 19.5398L46.6476 19.5389V20.804L46.6509 43.132C46.6514 45.855 44.4361 48.0708 41.714 48.0703L40.47 48.0712L40.4714 54.4284C40.4714 57.0225 38.3611 59.1342 35.7684 59.1342C35.1502 59.1371 34.5376 59.0169 33.9664 58.7805C33.3951 58.5441 32.8766 58.1964 32.4412 57.7575C32.002 57.3223 31.6537 56.8041 31.4166 56.233C31.1794 55.662 31.0582 55.0495 31.0598 54.4312V48.0712H28.9453V54.4298C28.9444 57.0244 26.8345 59.1375 24.2395 59.137Z" fill="white"/>
<path d="M14.6275 43.1353C14.6264 43.6178 14.7206 44.0957 14.9047 44.5417C15.0887 44.9877 15.3591 45.393 15.7001 45.7343C16.0411 46.0756 16.4462 46.3462 16.892 46.5306C17.3379 46.715 17.8158 46.8096 18.2982 46.8089H20.7981L20.8009 54.4327C20.8004 56.3311 22.3426 57.8738 24.2392 57.8742C24.6912 57.874 25.1388 57.7847 25.5563 57.6114C25.9738 57.4382 26.3531 57.1844 26.6725 56.8646C26.9919 56.5447 27.2452 56.1651 27.4179 55.7473C27.5905 55.3296 27.6792 54.8819 27.6789 54.4298L27.6793 46.8084L32.3242 46.807L32.3237 54.4303C32.3256 56.3292 33.8696 57.8738 35.7657 57.87C37.667 57.8714 39.2082 56.3269 39.2078 54.4275L39.2054 46.8061L41.7146 46.8056C43.7392 46.8061 45.3859 45.1613 45.3859 43.132L45.3817 20.8031L14.6218 20.8088L14.6275 43.1353ZM50.1545 42.7088C47.5595 42.7092 45.4487 40.6003 45.4492 38.0044L45.4454 23.5959C45.4464 21.0005 47.5539 18.8892 50.1475 18.8892C52.7443 18.8888 54.8565 20.9995 54.856 23.5945L54.8575 38.002C54.8579 40.5961 52.749 42.7092 50.1545 42.7088ZM50.1498 20.1544C48.25 20.1525 46.7106 21.6952 46.7106 23.5959L46.712 38.0039C46.7117 38.4559 46.8006 38.9035 46.9735 39.3211C47.1464 39.7387 47.3999 40.1181 47.7195 40.4377C48.0391 40.7572 48.4186 41.0106 48.8363 41.1834C49.254 41.3562 49.7016 41.4449 50.1535 41.4445C50.6055 41.4445 51.0529 41.3555 51.4704 41.1825C51.8879 41.0095 52.2672 40.7559 52.5866 40.4362C52.906 40.1166 53.1594 39.7371 53.3321 39.3195C53.5048 38.9019 53.5935 38.4544 53.5932 38.0025L53.5895 23.595C53.5898 23.1432 53.501 22.6957 53.3283 22.2782C53.1556 21.8607 52.9022 21.4813 52.5828 21.1618C52.2633 20.8422 51.884 20.5888 51.4665 20.4159C51.0491 20.2431 50.6016 20.1542 50.1498 20.1544Z" fill="white"/>
<path d="M9.84567 20.1586C7.94583 20.1576 6.40599 21.7012 6.40552 23.5997L6.40786 38.0072C6.40755 38.4592 6.49636 38.9069 6.6692 39.3246C6.84204 39.7424 7.09552 40.1219 7.41516 40.4416C7.73479 40.7613 8.1143 41.0148 8.53199 41.1877C8.94969 41.3606 9.39736 41.4495 9.84942 41.4492C10.3014 41.4497 10.7491 41.361 11.1668 41.1882C11.5844 41.0154 11.9639 40.7619 12.2834 40.4422C12.6029 40.1225 12.8563 39.7429 13.0288 39.3251C13.2014 38.9074 13.2899 38.4596 13.2891 38.0076V23.5978C13.2881 22.6852 12.9249 21.8104 12.2792 21.1655C11.6335 20.5206 10.7582 20.1585 9.84567 20.1586ZM37.5919 7.22014L39.9933 2.83499C40.0545 2.72374 40.0691 2.59278 40.0338 2.47082C39.9986 2.34885 39.9164 2.24584 39.8054 2.18436C39.6941 2.12417 39.5635 2.11045 39.4421 2.14619C39.3208 2.18194 39.2185 2.26424 39.1576 2.37514L36.7318 6.80624C34.6908 5.8978 32.4066 5.38874 29.9897 5.39108C27.5794 5.38874 25.2961 5.89639 23.2636 6.79967L20.835 2.37983C20.8054 2.32466 20.7651 2.27592 20.7165 2.23644C20.6679 2.19695 20.6119 2.1675 20.5518 2.1498C20.4917 2.1321 20.4287 2.1265 20.3665 2.13332C20.3042 2.14013 20.2439 2.15924 20.1891 2.18952C20.1338 2.2191 20.0849 2.25943 20.0453 2.30814C20.0057 2.35685 19.9762 2.41296 19.9586 2.47319C19.941 2.53343 19.9355 2.59657 19.9426 2.65894C19.9496 2.7213 19.9691 2.78163 19.9997 2.83639L22.4021 7.21874C17.6818 9.65296 14.4924 14.2889 14.4952 19.6116L45.488 19.6078C45.4894 14.287 42.3057 9.66046 37.5919 7.22014ZM22.9407 13.9969C22.596 13.9967 22.2655 13.8596 22.0219 13.6157C21.7783 13.3719 21.6416 13.0412 21.6418 12.6965C21.642 12.3519 21.7791 12.0214 22.0229 11.7778C22.2668 11.5342 22.5974 11.3975 22.9421 11.3976C23.2868 11.3983 23.6172 11.5354 23.861 11.7792C24.1048 12.0229 24.2421 12.3532 24.2429 12.698C24.2424 13.0429 24.1049 13.3735 23.8607 13.617C23.6165 13.8606 23.2856 13.9972 22.9407 13.9969ZM37.0533 13.994C36.8827 13.9942 36.7137 13.9607 36.556 13.8954C36.3984 13.8302 36.2551 13.7345 36.1344 13.6139C36.0137 13.4933 35.918 13.35 35.8527 13.1924C35.7875 13.0347 35.7539 12.8658 35.754 12.6951C35.7558 12.3508 35.8933 12.021 36.1366 11.7772C36.3799 11.5335 36.7094 11.3954 37.0538 11.393C37.3979 11.3958 37.727 11.5341 37.9698 11.778C38.2126 12.0218 38.3495 12.3515 38.3508 12.6956C38.351 12.8661 38.3176 13.0349 38.2525 13.1925C38.1873 13.3501 38.0918 13.4932 37.9713 13.6138C37.8508 13.7344 37.7077 13.8301 37.5502 13.8953C37.3926 13.9606 37.2238 13.9941 37.0533 13.994ZM14.6218 20.8087L14.6269 43.1376C14.6264 43.6199 14.721 44.0975 14.9053 44.5432C15.0896 44.9888 15.36 45.3937 15.701 45.7347C16.042 46.0757 16.447 46.346 16.8926 46.5303C17.3383 46.7145 17.8159 46.809 18.2982 46.8084L20.798 46.8094L20.8008 54.4331C20.8004 56.3316 22.3435 57.8747 24.2391 57.8747C26.1404 57.8747 27.6807 56.3301 27.6811 54.4308L27.6793 46.8089L32.3241 46.8075L32.326 54.4308C32.326 56.3278 33.8696 57.8742 35.7657 57.8705C37.6669 57.8719 39.2082 56.3273 39.2077 54.428L39.2054 46.8065L41.7141 46.8047C42.1964 46.8047 42.674 46.7098 43.1196 46.5253C43.5652 46.3408 43.9701 46.0703 44.3112 45.7293C44.6523 45.3883 44.9229 44.9835 45.1075 44.5379C45.2921 44.0924 45.3872 43.6148 45.3872 43.1325L45.383 20.8036L14.6218 20.8087ZM53.5908 23.5945C53.5909 23.1427 53.5019 22.6952 53.329 22.2777C53.1561 21.8603 52.9026 21.481 52.583 21.1615C52.2635 20.842 51.8841 20.5886 51.4666 20.4158C51.0491 20.243 50.6016 20.1542 50.1497 20.1544C48.2499 20.1525 46.7105 21.6951 46.7105 23.5959L46.7133 38.0044C46.713 38.4562 46.8018 38.9037 46.9746 39.3212C47.1473 39.7387 47.4007 40.1181 47.7202 40.4376C48.0397 40.7571 48.4191 41.0105 48.8366 41.1833C49.2541 41.3561 49.7016 41.4448 50.1535 41.4445C50.6054 41.4446 51.0529 41.3556 51.4704 41.1826C51.8879 41.0096 52.2672 40.756 52.5867 40.4364C52.9061 40.1167 53.1594 39.7372 53.3321 39.3196C53.5048 38.902 53.5935 38.4544 53.5932 38.0025L53.5908 23.5945Z" fill="#A4C439"/>
</svg>
