<svg width="72" height="72" viewBox="0 0 72 72" fill="none" xmlns="http://www.w3.org/2000/svg">
<path fill-rule="evenodd" clip-rule="evenodd" d="M42.1472 10.948H45.8482V11.024C45.8482 13.584 44.9162 15.974 43.0572 18.187C40.8132 20.817 38.0992 22.337 35.1572 22.097C35.1176 21.7752 35.0975 21.4513 35.0972 21.127C35.0972 18.67 36.1642 16.039 38.0592 13.889C39.0052 12.799 40.2082 11.895 41.6672 11.172C41.8272 11.094 41.9872 11.019 42.1472 10.948ZM15.1992 30.855C15.3892 30.458 15.5962 30.072 15.8192 29.697C16.9842 27.705 18.5322 26.134 20.4692 24.981C22.3695 23.8405 24.5391 23.2264 26.7552 23.202C27.9892 23.202 29.6072 23.585 31.6172 24.337C33.6222 25.091 34.9092 25.474 35.4732 25.474C35.8952 25.474 37.3252 25.026 39.7492 24.134C42.0422 23.307 43.9772 22.964 45.5622 23.1C49.8572 23.447 53.0832 25.145 55.2292 28.204C53.9462 28.984 52.8792 29.867 52.0292 30.855H15.1992Z" fill="#5C9E31"/>
<path d="M42.1471 10.948V9.948C42.0068 9.94813 41.8682 9.97777 41.7401 10.035L42.1471 10.948ZM45.8481 10.948L46.8481 10.941C46.8463 10.677 46.7401 10.4244 46.5528 10.2384C46.3654 10.0524 46.1121 9.94799 45.8481 9.948V10.948ZM43.0571 18.188L43.8171 18.836L43.8221 18.83L43.0561 18.187L43.0571 18.188ZM35.1571 22.098L34.1641 22.218C34.1919 22.4466 34.2977 22.6586 34.4637 22.8182C34.6297 22.9778 34.8456 23.0752 35.0751 23.094L35.1561 22.097L35.1571 22.098ZM38.0591 13.888L38.8091 14.55L38.8141 14.545L38.0591 13.889V13.888ZM41.6671 11.172L41.2271 10.274L41.2231 10.276L41.6671 11.172ZM15.1991 30.855L14.2971 30.424C14.2243 30.5764 14.1913 30.7448 14.2012 30.9134C14.211 31.082 14.2634 31.2454 14.3535 31.3882C14.4436 31.5311 14.5683 31.6489 14.7162 31.7305C14.8641 31.8121 15.0302 31.8549 15.1991 31.855V30.855ZM15.8191 29.697L16.6791 30.209L16.6831 30.201L15.8191 29.697ZM26.7551 23.202V22.202H26.7391L26.7551 23.202ZM31.6171 24.337L31.9691 23.401H31.9671L31.6171 24.337ZM39.7491 24.134L39.4101 23.194L39.4041 23.196L39.7491 24.134ZM45.5621 23.1L45.4771 24.096H45.4811L45.5621 23.1ZM55.2291 28.204L55.7491 29.058C55.8661 28.9869 55.9672 28.8926 56.0462 28.7808C56.1252 28.6691 56.1804 28.5423 56.2084 28.4083C56.2365 28.2744 56.2367 28.1361 56.2091 28.002C56.1815 27.868 56.1267 27.741 56.0481 27.629L55.2291 28.204ZM52.0291 30.855V31.855C52.173 31.8551 52.3152 31.8241 52.446 31.7643C52.5768 31.7044 52.6932 31.617 52.7871 31.508L52.0291 30.855ZM42.1471 11.948H45.8481V9.948H42.1471V11.948ZM44.8481 10.955V11.025H46.8481V10.941L44.8481 10.955ZM44.8481 11.025C44.8481 13.318 44.0201 15.486 42.2911 17.544L43.8221 18.83C45.8121 16.463 46.8481 13.851 46.8481 11.025H44.8481ZM42.2961 17.538C40.1761 20.024 37.7491 21.305 35.2381 21.101L35.0751 23.094C38.4501 23.369 41.4501 21.611 43.8171 18.836L42.2961 17.538ZM36.1491 21.976C36.1145 21.6943 36.0972 21.4108 36.0971 21.127H34.0971C34.0971 21.51 34.1221 21.874 34.1641 22.218L36.1491 21.976ZM36.0971 21.127C36.0971 18.949 37.0501 16.547 38.8091 14.55L37.3091 13.228C35.2791 15.532 34.0971 18.389 34.0971 21.127H36.0971ZM38.8141 14.545C39.6621 13.568 40.7541 12.74 42.1111 12.069L41.2231 10.276C39.6611 11.049 38.3471 12.032 37.3041 13.233L38.8141 14.545ZM42.1061 12.071C42.2561 11.997 42.4061 11.927 42.5541 11.861L41.7401 10.035C41.5701 10.11 41.3991 10.19 41.2271 10.274L42.1061 12.071ZM16.1011 31.287C16.2781 30.917 16.4711 30.558 16.6791 30.209L14.9611 29.184C14.7211 29.586 14.5001 29.999 14.2971 30.424L16.1011 31.287ZM16.6831 30.201C17.7631 28.352 19.1931 26.905 20.9811 25.84L19.9581 24.121C17.8711 25.363 16.2031 27.058 14.9571 29.192L16.6831 30.201ZM20.9811 25.84C22.7312 24.789 24.7298 24.2236 26.7711 24.202L26.7391 22.202C24.3121 22.242 22.0471 22.877 19.9581 24.121L20.9811 25.84ZM26.7551 24.202C27.8101 24.202 29.2951 24.536 31.2671 25.273L31.9671 23.401C29.9191 22.635 28.1671 22.202 26.7551 22.202V24.202ZM31.2651 25.272C32.1001 25.5937 32.9463 25.8856 33.8021 26.147C34.4441 26.337 35.0321 26.474 35.4731 26.474V24.474C35.3511 24.474 35.0131 24.419 34.3691 24.229C33.5598 23.9809 32.7593 23.7047 31.9691 23.401L31.2651 25.273V25.272ZM35.4731 26.474C35.7081 26.474 35.9771 26.419 36.2131 26.362C36.4751 26.299 36.7931 26.208 37.1591 26.093C38.1456 25.776 39.1245 25.4359 40.0951 25.073L39.4041 23.196C38.4642 23.5473 37.5173 23.8767 36.5621 24.184C36.2161 24.293 35.9451 24.369 35.7441 24.418C35.5181 24.473 35.4491 24.474 35.4731 24.474V26.474ZM40.0891 25.075C42.3091 24.274 44.0911 23.978 45.4771 24.096L45.6471 22.103C43.8621 21.951 41.7741 22.342 39.4101 23.194L40.0891 25.075ZM45.4811 24.096C49.5311 24.424 52.4641 26.003 54.4111 28.778L56.0481 27.629C53.7031 24.287 50.1811 22.47 45.6421 22.103L45.4811 24.096ZM54.7101 27.349C53.3501 28.175 52.2001 29.125 51.2711 30.203L52.7871 31.508C53.5601 30.61 54.5421 29.792 55.7491 29.058L54.7101 27.349ZM52.0301 29.855H15.1981V31.855H52.0291L52.0281 29.855H52.0301Z" fill="#5C9E31"/>
<path fill-rule="evenodd" clip-rule="evenodd" d="M54.26 29C51.693 30.832 50.17 33.167 49.69 36H13.769C14.064 33.702 14.748 31.652 15.821 29.855C15.993 29.561 16.173 29.275 16.361 29H54.261H54.26Z" fill="#FCEA2B"/>
<path fill-rule="evenodd" clip-rule="evenodd" d="M49.8681 35C49.6301 35.94 49.5161 36.94 49.5261 38C49.5461 39.842 49.9301 41.509 50.6771 43H13.9871C13.7321 41.5357 13.6027 40.0523 13.6001 38.566C13.6001 37.314 13.6981 36.126 13.8951 35H49.8681Z" fill="#F4AA41"/>
<path fill-rule="evenodd" clip-rule="evenodd" d="M50.0749 42C50.6389 43.749 51.6349 45.288 53.0649 46.616C54.091 47.6011 55.2892 48.3895 56.5999 48.942L56.5799 49H15.4829C15.4009 48.776 15.3209 48.55 15.2419 48.322C14.5049 46.169 14.0149 44.062 13.7749 42H50.0749Z" fill="#EA5A47"/>
<path fill-rule="evenodd" clip-rule="evenodd" d="M53.243 56C54.1989 54.5696 55.021 53.0542 55.6991 51.473C56.0253 50.6921 56.3258 49.9006 56.6 49.1C56.523 49.0675 56.4464 49.0342 56.37 49H15.425C16.375 51.627 17.555 53.958 18.963 56H53.243Z" fill="#8967AA"/>
<path fill-rule="evenodd" clip-rule="evenodd" d="M26.1389 62C25.0409 61.736 23.9449 61.094 22.8499 60.074C21.9219 59.262 20.7739 57.904 19.4099 56H52.8059C51.4299 57.95 50.2979 59.308 49.4189 60.074C48.2589 61.144 47.0309 61.784 45.7309 62H43.8269C42.8969 61.865 41.8469 61.558 40.6769 61.075C39.0399 60.405 37.5349 60.074 36.1589 60.074C34.7159 60.074 33.1679 60.406 31.5119 61.076C30.3919 61.53 29.4199 61.837 28.5919 62H26.1389Z" fill="#61B2E4"/>
<path d="M35.1561 22.097C35.1168 21.7752 35.0971 21.4512 35.0971 21.127C35.0971 18.67 36.1641 16.039 38.0591 13.889C39.0051 12.799 40.2081 11.895 41.6671 11.172C43.1231 10.461 44.5001 10.067 45.7951 10C45.8331 10.342 45.8481 10.684 45.8481 11.024C45.8481 13.584 44.9161 15.974 43.0571 18.187C42.2271 19.16 41.3321 19.982 40.3851 20.618M55.6991 50.841C54.9544 52.5792 54.0347 54.2371 52.9541 55.789C51.5111 57.852 50.3291 59.281 49.4191 60.074C48.0071 61.376 46.4941 62.042 44.8751 62.08C43.7121 62.08 42.3101 61.749 40.6781 61.075C39.0401 60.405 37.5351 60.074 36.1581 60.074C34.7161 60.074 33.1681 60.406 31.5121 61.076C29.8541 61.749 28.5181 62.099 27.4971 62.134C25.9441 62.2 24.3961 61.514 22.8501 60.074C21.8641 59.211 20.6301 57.732 19.1531 55.638C17.5671 53.4 16.2631 50.806 15.2421 47.848C14.1481 44.654 13.6001 41.56 13.6001 38.566C13.6001 35.136 14.3401 32.176 15.8201 29.696C16.9841 27.706 18.5321 26.134 20.4701 24.981C22.37 23.8406 24.5393 23.2266 26.7551 23.202C27.9891 23.202 29.6071 23.585 31.6171 24.337C33.6221 25.091 34.9091 25.474 35.4731 25.474C35.8951 25.474 37.3251 25.026 39.7491 24.134C42.0421 23.307 43.9771 22.964 45.5621 23.1C49.8571 23.447 53.0831 25.145 55.2291 28.204C51.3891 30.538 49.4881 33.806 49.5261 38C49.5601 41.266 50.7421 43.984 53.0641 46.142C54.0905 47.1272 55.289 47.9155 56.6001 48.468C56.326 49.2687 56.0255 50.0602 55.6991 50.841Z" stroke="black" stroke-width="2" stroke-linecap="round" stroke-linejoin="round"/>
</svg>
