<svg width="25" height="25" viewBox="0 0 25 25" fill="none" xmlns="http://www.w3.org/2000/svg">
<g id="iconamoon:like">
<g id="Group">
<path id="Vector" d="M15.625 10.4167L14.5979 10.2458C14.5731 10.395 14.5811 10.5478 14.6213 10.6935C14.6615 10.8393 14.7329 10.9746 14.8306 11.09C14.9284 11.2053 15.0501 11.298 15.1872 11.3617C15.3244 11.4253 15.4738 11.4583 15.625 11.4583V10.4167ZM4.16667 10.4167V9.375C3.8904 9.375 3.62545 9.48475 3.4301 9.6801C3.23475 9.87545 3.125 10.1404 3.125 10.4167H4.16667ZM6.25 21.875H18.0833V19.7917H6.25V21.875ZM19.3333 9.375H15.625V11.4583H19.3333V9.375ZM16.6531 10.5875L17.4917 5.55104L15.4375 5.20833L14.5979 10.2458L16.6531 10.5875ZM15.4375 3.125H15.2146V5.20833H15.4375V3.125ZM11.7469 4.98021L9.12708 8.91146L10.8604 10.0677L13.4813 6.13646L11.7469 4.98021ZM8.26042 9.375H4.16667V11.4583H8.26042V9.375ZM3.125 10.4167V18.75H5.20833V10.4167H3.125ZM21.1479 19.3625L22.3979 13.1125L20.3563 12.7042L19.1062 18.9542L21.1479 19.3625ZM9.12708 8.91146C9.03193 9.05408 8.90304 9.17101 8.75186 9.25187C8.60067 9.33273 8.43187 9.37503 8.26042 9.375V11.4583C8.77486 11.4583 9.28134 11.3313 9.7349 11.0885C10.1885 10.8457 10.5751 10.4947 10.8604 10.0667L9.12708 8.91042V8.91146ZM17.4917 5.55104C17.5414 5.25264 17.5256 4.94699 17.4453 4.65532C17.365 4.36365 17.2221 4.09298 17.0267 3.8621C16.8312 3.63123 16.5878 3.44569 16.3133 3.3184C16.0389 3.19111 15.74 3.12511 15.4375 3.125V5.20833L17.4917 5.55104ZM19.3333 11.4583C19.4875 11.4583 19.6397 11.4924 19.7791 11.5583C19.9184 11.6242 20.0414 11.7202 20.1391 11.8394C20.2369 11.9586 20.307 12.098 20.3443 12.2475C20.3817 12.397 20.3865 12.553 20.3563 12.7042L22.3979 13.1125C22.4885 12.6592 22.4774 12.1915 22.3655 11.743C22.2535 11.2945 22.0434 10.8765 21.7504 10.519C21.4573 10.1615 21.0886 9.87343 20.6709 9.67561C20.2531 9.4778 19.7966 9.37512 19.3344 9.375V11.4583H19.3333ZM18.0833 21.875C18.8059 21.875 19.5061 21.6247 20.0648 21.1666C20.6236 20.7086 21.0063 20.071 21.1479 19.3625L19.1062 18.9542C19.059 19.1906 18.9312 19.4033 18.7447 19.556C18.5581 19.7087 18.3244 19.792 18.0833 19.7917V21.875ZM15.2146 3.125C14.5285 3.12484 13.853 3.29409 13.2481 3.61773C12.6431 3.94137 12.1275 4.40938 11.7469 4.98021L13.4813 6.13646C13.6714 5.85102 13.9292 5.61696 14.2315 5.45505C14.5339 5.29314 14.8716 5.2084 15.2146 5.20833V3.125ZM6.25 19.7917C5.97373 19.7917 5.70878 19.6819 5.51343 19.4866C5.31808 19.2912 5.20833 19.0263 5.20833 18.75H3.125C3.125 19.5788 3.45424 20.3737 4.04029 20.9597C4.62634 21.5458 5.4212 21.875 6.25 21.875V19.7917Z" fill="#B5D4EC"/>
<path id="Vector_2" d="M8.33337 10.4166V20.8333" stroke="#B5D4EC"/>
</g>
</g>
</svg>
