<svg width="25" height="25" viewBox="0 0 25 25" fill="none" xmlns="http://www.w3.org/2000/svg">
<g id="iconamoon:dislike">
<g id="Group">
<path id="Vector" d="M15.625 14.5833L14.5979 14.7542C14.5731 14.605 14.5811 14.4522 14.6213 14.3065C14.6615 14.1607 14.7329 14.0254 14.8306 13.91C14.9284 13.7947 15.0501 13.702 15.1872 13.6383C15.3244 13.5747 15.4738 13.5417 15.625 13.5417V14.5833ZM4.16667 14.5833V15.625C3.8904 15.625 3.62545 15.5153 3.4301 15.3199C3.23475 15.1246 3.125 14.8596 3.125 14.5833H4.16667ZM6.25 3.125H18.0833V5.20833H6.25V3.125ZM19.3333 15.625H15.625V13.5417H19.3333V15.625ZM16.6531 14.4125L17.4917 19.449L15.4375 19.7917L14.5979 14.7542L16.6531 14.4125ZM15.4375 21.875H15.2146V19.7917H15.4375V21.875ZM11.7469 20.0198L9.12708 16.0885L10.8604 14.9323L13.4813 18.8635L11.7469 20.0198ZM8.26042 15.625H4.16667V13.5417H8.26042V15.625ZM3.125 14.5833V6.25H5.20833V14.5833H3.125ZM21.1479 5.6375L22.3979 11.8875L20.3563 12.2958L19.1062 6.04583L21.1479 5.6375ZM9.12708 16.0885C9.03193 15.9459 8.90304 15.829 8.75186 15.7481C8.60067 15.6673 8.43187 15.625 8.26042 15.625V13.5417C8.77486 13.5417 9.28134 13.6687 9.7349 13.9115C10.1885 14.1543 10.5751 14.5053 10.8604 14.9333L9.12708 16.0896V16.0885ZM17.4917 19.449C17.5414 19.7474 17.5256 20.053 17.4453 20.3447C17.365 20.6363 17.2221 20.907 17.0267 21.1379C16.8312 21.3688 16.5878 21.5543 16.3133 21.6816C16.0389 21.8089 15.74 21.8749 15.4375 21.875V19.7917L17.4917 19.449ZM19.3333 13.5417C19.4875 13.5417 19.6397 13.5076 19.7791 13.4417C19.9184 13.3758 20.0414 13.2798 20.1391 13.1606C20.2369 13.0414 20.307 12.902 20.3443 12.7525C20.3817 12.603 20.3865 12.447 20.3563 12.2958L22.3979 11.8875C22.4885 12.3408 22.4774 12.8085 22.3655 13.257C22.2535 13.7055 22.0434 14.1235 21.7504 14.481C21.4573 14.8385 21.0886 15.1266 20.6709 15.3244C20.2531 15.5222 19.7966 15.6249 19.3344 15.625V13.5417H19.3333ZM18.0833 3.125C18.8059 3.12495 19.5061 3.37527 20.0648 3.83336C20.6236 4.29145 21.0063 4.92899 21.1479 5.6375L19.1062 6.04583C19.059 5.80943 18.9312 5.59674 18.7447 5.44401C18.5581 5.29129 18.3244 5.208 18.0833 5.20833V3.125ZM15.2146 21.875C14.5285 21.8752 13.853 21.7059 13.2481 21.3823C12.6431 21.0586 12.1275 20.5906 11.7469 20.0198L13.4813 18.8635C13.6714 19.149 13.9292 19.383 14.2315 19.5449C14.5339 19.7069 14.8716 19.7916 15.2146 19.7917V21.875ZM6.25 5.20833C5.97373 5.20833 5.70878 5.31808 5.51343 5.51343C5.31808 5.70878 5.20833 5.97373 5.20833 6.25H3.125C3.125 5.4212 3.45424 4.62634 4.04029 4.04029C4.62634 3.45424 5.4212 3.125 6.25 3.125V5.20833Z" fill="#B5D4EC"/>
<path id="Vector_2" d="M8.33337 14.5833V4.16663" stroke="#B5D4EC"/>
</g>
</g>
</svg>
