<svg width="48" height="77" viewBox="0 0 48 77" fill="none" xmlns="http://www.w3.org/2000/svg">
<g id="mouse">
<path id="Vector" d="M28.9231 0L19.0769 0C14.0192 0.00648458 9.17018 2.29481 5.5938 6.36295C2.01742 10.4311 0.00570073 15.9468 0 21.7L0 55.3C0.00570073 61.0532 2.01742 66.5689 5.5938 70.6371C9.17018 74.7052 14.0192 76.9935 19.0769 77H28.9231C33.9808 76.9935 38.8298 74.7052 42.4062 70.6371C45.9826 66.5689 47.9943 61.0532 48 55.3V21.7C47.9943 15.9468 45.9826 10.4311 42.4062 6.36295C38.8298 2.29481 33.9808 0.00648458 28.9231 0ZM44.3077 21.7V30.8H25.8462V4.2H28.9231C33.0018 4.20556 36.9121 6.05109 39.7962 9.33177C42.6804 12.6125 44.3028 17.0604 44.3077 21.7ZM19.0769 4.2H22.1538V30.8H3.69231V21.7C3.69719 17.0604 5.31964 12.6125 8.20375 9.33177C11.0879 6.05109 14.9982 4.20556 19.0769 4.2ZM28.9231 72.8H19.0769C14.9982 72.7944 11.0879 70.9489 8.20375 67.6682C5.31964 64.3875 3.69719 59.9396 3.69231 55.3V35H44.3077V55.3C44.3028 59.9396 42.6804 64.3875 39.7962 67.6682C36.9121 70.9489 33.0018 72.7944 28.9231 72.8Z" fill="#B5D4EC"/>
<path id="Vector 1" d="M20.3227 19.8946C21.4087 20.0921 20.5126 20.5974 19.9251 20.333C18.5419 19.7106 17.7434 18.386 17.3865 16.9584" stroke="#B5D4EC" stroke-width="10" stroke-linecap="round"/>
<path id="Vector 2" d="M19.4051 28.8868C18.1676 27.443 18.0859 25.4486 18.1205 23.6465C18.1283 23.2427 18.2973 23.0562 18.6813 23.3202C19.3808 23.8011 19.8302 25.1633 20.027 25.9506C20.6731 28.5349 18.3192 27.2484 17.2132 26.3991C16.1199 25.5597 15.0458 24.5736 14.5726 23.2387C14.463 22.9293 14.1241 22.0764 14.4503 21.9133" stroke="#B5D4EC" stroke-width="10" stroke-linecap="round"/>
<path id="Vector 3" d="M14.2668 9.25092H14.0833" stroke="#B5D4EC" stroke-width="10" stroke-linecap="round"/>
<path id="Vector 4" d="M11.1471 12.7377C10.1769 12.8589 8.78191 13.7705 8.76139 14.8379C8.7117 17.4215 7.73157 19.9459 6.92626 22.3619C6.67051 23.1291 6.6188 24.0109 6.28397 24.7475C5.92089 25.5463 6.83502 26.1557 7.10978 26.8273C7.40269 27.5434 7.25045 28.1527 8.12929 28.1527C8.6799 28.1527 10.9738 27.7985 11.3306 28.2445C11.718 28.7287 12.7566 28.5922 13.1045 28.1731C15.2822 25.55 16.4477 22.2688 17.5598 19.0994C18.2699 17.0757 19.0036 15.0249 19.5886 12.962C19.8387 12.0801 20.3227 10.9946 20.3227 10.0767C20.3227 9.34266 20.4496 7.61732 19.4969 7.4056C18.2143 7.12058 16.8887 7.04877 15.5514 7.04877" stroke="#B5D4EC" stroke-width="10" stroke-linecap="round"/>
</g>
</svg>
