<svg width="39" height="35" viewBox="0 0 39 35" fill="none" xmlns="http://www.w3.org/2000/svg">
<path id="Vector" d="M19.6212 0.769287C9.10002 0.769287 0.570923 8.346 0.570923 17.6924C0.570923 27.0387 9.10002 34.6154 19.6212 34.6154C30.1424 34.6154 38.6715 27.0387 38.6715 17.6924C38.6715 8.346 30.1424 0.769287 19.6212 0.769287ZM10.0193 7.91903L13.4099 8.86517C13.8587 8.99613 14.1577 9.36641 14.2098 9.7452L14.4005 11.404L29.7533 12.9265C30.4125 13.0399 30.8758 13.5687 30.7835 14.1123L29.83 18.8842C29.7087 19.3834 29.2433 19.7255 28.7254 19.7312H15.0865L14.8191 21.0843H27.772C28.4493 21.1055 28.9454 21.5637 28.9533 22.0986C28.9252 22.7089 28.3715 23.1084 27.772 23.115H13.4471C12.7246 23.0619 12.1941 22.5533 12.3053 21.9313L12.9145 18.9524L11.9611 10.6252L9.33329 9.88157C9.02849 9.79132 8.79969 9.62155 8.64729 9.37334C8.35893 8.83654 8.62827 8.24221 9.14263 7.98512C9.43619 7.84956 9.7229 7.83267 10.0193 7.91903ZM15.1819 23.6997C16.1682 23.6997 16.9679 24.41 16.9679 25.2863C16.9679 26.1624 16.1682 26.8728 15.1819 26.8728C14.1956 26.8728 13.3959 26.1624 13.3959 25.2863C13.3959 24.41 14.1955 23.6997 15.1819 23.6997ZM25.6651 23.6997C26.6514 23.6997 27.4511 24.41 27.4511 25.2863C27.4511 26.1624 26.6514 26.8728 25.6651 26.8728C24.6788 26.8728 23.8791 26.1624 23.8791 25.2863C23.8791 24.41 24.6788 23.6997 25.6651 23.6997Z" fill="#D4AF37"/>
</svg>
